<svg
  class="NuxtLogo"
  width="200"
  height="200"
  viewBox="0 0 1100 1024"
  xmlns="http://www.w3.org/2000/svg"
>
  <path
    d="M704.284991 417.379925c17.694458 10.474532 21.885352 4.108235 28.073197 0.562391 6.205614-3.559749 236.825309-135.550901 251.506958-142.738381 14.698644-7.189025 21.193178-30.862749 1.838586-42.063446-19.356138-11.232369-409.509464-237.244012-390.669367-227.55899 20.290108 10.411186-19.370815-13.359876-42.320693-2.81968-22.9661 10.542513-374.391702 212.602326-399.306858 226.833599-24.899706 14.229728-32.747686 27.895519-32.667344 46.849948 0.063346 18.952112-1.256882 439.209579 0 464.157181s11.120354 33.069052 24.270878 42.04645c13.150524 8.992075 369.071391 217.646077 396.003584 232.231161 26.929875 14.618303 44.608883 9.622448 62.094761-0.643505 17.484334-10.298398 366.267933-209.557072 380.224963-218.437132 13.956257-8.880061 26.640182-31.731829-2.529987-48.218846-29.185619-16.470021-238.178755-140.09638-246.237632-144.125818s-12.827613-4.10978-24.495681 2.433422c-11.666523 6.574876-116.39021 65.462927-129.137481 72.9092s-14.568089 4.092785-20.677138 0.530717c-6.092054-3.577517-114.181589-66.64024-126.65539-73.665491s-13.95703-10.572641-13.988703-20.145648c-0.016223-9.556784-0.290466-130.877958 0.370807-145.011121 0.643505-14.133936 2.657452-17.310518 15.502832-24.947601 12.844608-7.640174 107.897179-64.110253 115.487913-69.187222 7.573738-5.075424 23.512269-5.559018 35.954396 1.742021 12.442128 7.284045 99.662169 58.774491 117.357399 69.266791"
    fill="#6BA44E"
  ></path>
</svg>